<?xml version="1.0" encoding="utf-8"?>
<!-- Generator: Adobe Illustrator 27.3.1, SVG Export Plug-In . SVG Version: 6.00 Build 0)  -->
<svg version="1.1" id="Calque_1" xmlns="http://www.w3.org/2000/svg" xmlns:xlink="http://www.w3.org/1999/xlink" x="0px" y="0px"
	 viewBox="0 0 248 390" style="enable-background:new 0 0 248 390;" xml:space="preserve">
<path d="M155.5,99.2c-25.2-1-34.7-7.9-50.4-9.7c-20.2-2.2-43.6,4.8-43.6,4.8s-2.9,1.9-3.9-1c-1-1.9-15.6-49.6-42-70
	c0,0,32.1-7,35.3,23c0.8,4.6,4.8,3.5,4.8,3.5s22.4-20.2,24.9,11.3c0-0.2-1-0.7-1.2-0.8c-0.9-0.6-1.9-1.1-2.9-1.4
	c-2.5-0.9-5.3-1-7.3,1c-3,3.1-2.9,8.3-1.2,12c0.8,1.7,2.3,3.3,3.7,4.6c1.5,1.3,3.2,2.4,5.1,2.8c0.7,0.1,1.3,0.2,2,0.2
	c4.6-0.1,8.1-4.1,10.4-7.7c0.1-0.2,1.5-2.5,1.5-2.5c0,0,24.9,10.1,24.3-11.2c0,0-0.7-12.2-11.3-12.2s-10.7,8.7-10.7,8.7
	s-17-20.8,19.3-20.8c0,0,2.4-3.3-3.8-10.6c0,0-2.9-19.8,10-23.3c12.9,3.6,10,23.3,10,23.3c-6.3,7.3-3.8,10.6-3.8,10.6
	c36.3,0,19.3,20.8,19.3,20.8s-0.1-8.7-10.7-8.7s-11.3,12.2-11.3,12.2c-0.6,21.3,24.3,11.2,24.3,11.2c-0.1,0,3,4.7,3.4,5.1
	c1,1.2,2.1,2.3,3.3,3.2c2.9,2.1,6.3,2.4,9.5,0.7c1.4-0.7,2.6-1.7,3.7-2.8c2-2,3.5-4.3,3.9-7.1c0.4-2.6-0.1-5.5-1.6-7.7
	c-1.8-2.6-4.8-2.9-7.6-2c-1.1,0.4-2.2,0.9-3.2,1.5c-0.2,0.1-1.3,0.6-1.3,0.9c2.4-31.5,24.9-11.3,24.9-11.3s4,1.1,4.8-3.5
	c3.2-30,35.3-23,35.3-23c-23.9,18.5-35.3,48.2-44.6,65.1C171.1,98.9,155.5,99.2,155.5,99.2L155.5,99.2z M125.5,80.9
	c0-8.1-6.7-8.9-6.7-8.9c-0.4,0.1-6.6,1.1-6.6,8.9s6.1,8.3,6.7,8.3C119.9,89.1,125.5,88.3,125.5,80.9z"/>
<path d="M233.5,256.3c0,0.1,0.1,0.1,0.2,0.3c0.4,0.5,0.8,0.9,1.1,1.4c1.3,2.3,0.8,5.1-0.2,7.4c-3.6,8.5-9.7,14.9-19.1,20.6
	c2.5-18.4-7.8-26.6-21.6-32.9c4.6-6,10.7-5.7,16.3-4.5c1.3,0.3,2.6,0.6,3.9,0.9c0.8,0.2,2.4,1,3.2,0.8c0.5-0.1,1-0.9,1.4-1.2
	c0.4-0.4,0.9-0.9,1.3-1.3c0.9-0.9,1.7-1.8,2.5-2.7c0.7-0.8,1.3-1.6,2-2.5c0.3-0.4,0.7-1.2,1.2-1.3c0,0,0,0.1,0.1,0.1
	c1.7,0.6,1,9.2,1.7,9.3c0.2,0,0.9-1.4,1-1.6c0.6-1,1.2-2,1.9-2.9c0.3-0.4,1-1.5,1.6-1.3c0.4,0.1,0.8,1.5,0.9,1.9
	c0.4,1,0.7,2.1,0.9,3.2c0.3,1.6,0.3,3.2,0,4.8c-0.1,0.4-0.2,0.8-0.2,1.1C233.5,256.2,233.4,256.3,233.5,256.3L233.5,256.3z"/>
<path d="M241.9,193.8c-5.6,0.2-11.3,0.1-17.8,0.1c3,6.9,7.8,8.5,13.3,9.4c8.9,1.5,11.1,5.6,7.2,13.8c-0.9,1.9-1.9,3.6-3,5.1
	c-2.8,7.4-9.3,15.8-12.2,14.3c1.3-1.9,2.8-6.6,3.3-8.4c-1.6,0.4-3.3,0.5-5.3,0.3c-2.4-0.2-4.8-0.4-7.2-0.4
	c-3.8,9.2-9.9,12.5-10.8,12.9c-0.1,0-0.1,0.1-0.1,0.1c1-4.1,1.3-8.5,1.2-12.2c-14.4,1.4-29.4-1.5-38-10.8c-0.9-1-1.9-1.8-2.7-2.9
	c-0.9-1.1-1.7-2.3-2.3-3.6c-0.6-1.1-1.1-2.3-1.2-3.6c-0.2-1.6,0.3-3.2,1-4.5c2.2-4,6.4-5.6,10.7-5.8c2.2-0.1,4.5,0,6.7-0.2
	c2-0.2,4.2-0.5,5.9-1.6c0.5-0.3,1-0.7,1.3-1.1c0.1-0.1,0.9-1.5,0.9-1.5c-8.8,0-16.6,0.1-24.4,0c-17.2-0.2-28.5-10-36.8-23.6
	c-6.6-10.9-3.8-21,6.8-28.4c2.4-1.7,5-3.1,7.6-4.5c0.8-0.4,3.7-1.7,1.4-2c-1.6-0.2-3.2-0.2-4.8,0c-5.2,0.5-10.2,2.5-14.5,5.5
	c-8.4,5.9-13.3,15.2-13.2,25.6c0.1,11.6,7.1,19.2,13.3,28.1c5.6,8,11.6,15.7,17.5,23.4c8.5,11,17.6,21.9,25,33.7
	c14.6,23.1,34.5,75.4-11.2,108.5c-4.4,3.6-18.5,11.3-15,6.9c19.5-24.8,17.7-55,16.4-63.8c-4.3-40.1-41.1-75-56.5-93
	c-7.6-8.7-13.4-19.4-14-31.1c-0.4-7.5,1.7-13.7,4.6-20.4c0.3-0.7,0.7-0.9,0.6-1.7c-4.7,2.3-9,7.4-12.2,11.5
	c-3.5,4.4-6.4,9.4-8.5,14.7c-4.5,11.5-2.6,21.5,3.9,31.7c8.4,13.2,37.7,47.5,49,63.3c14.6,20.3,27.2,77-13.2,109.4
	c-17.6,14.1,13.1-23.2-18.7-51.6c-15.1-14.9-33.1-25.9-50.1-38.3c-9.9-7.2-19.9-14.5-28.5-23.3c-19.6-20.1-23.6-54.9-8.6-80.1
	c0.7,8.6-0.5,16.5,3.3,26c3-27.4,14.6-47.6,35.4-62.2c-6.3,11.5-11.7,23.5-15.4,36c-5.5,18.3-4.9,40.2,2.3,58.1
	c2.9,7.2,7.3,13.7,12.7,19.2c5.8,5.8,12.8,9.8,19.7,14.1c11.8,7.3,23.6,14.5,34.2,23.5c7.5,6.4,12.9,14.5,18,22.8
	c0.4,0.6,1.7,0,1-0.9c-0.1-15.3-7.1-27.8-16.4-39.2c-8.8-10.8-19.5-19.9-29.2-29.8c-8.2-8.3-15.6-17-20.8-27.9S47.3,211,48.3,199
	c1.4-16.2,8.6-31.8,19.6-43.8c6.4-7,13.9-12.6,22.5-17.2c8.6-4.6,17.5-7,26.9-9.4c-7.7-2.1-16.8-2-24.7-1.7
	c-8.4,0.3-16.7,1.5-24.9,3.5c-17.2,4.4-41.6,27-57.1,39c0,0,18-51.5,60.9-65c14.1-4.5,28.6-3.7,43-0.9c12.3,2.4,24.5,5.8,37.2,5.6
	c9.9-0.2,18.1,3.1,25.4,9.9c4.4,4.1,9,7.9,13.5,11.9c5.1,4.6,11.5,8.2,12.2,16.4c0.2,2.9,3.5,4.7,5.7,6.7
	c12.2,10.6,24.4,21.1,36.5,31.7c2,1.7,3.3,3.1,2.1,5.9C246.1,194.5,244.5,193.7,241.9,193.8L241.9,193.8z M195.6,170.1
	c-4.2-5.5-12.7-7.2-14.7-18.2c-0.1-0.5-1.8-1.3-2.8-1.2c-9,0.8-18.3,0.8-27.8-0.1c-3.5,0.4-3.2,1.6-0.9,3
	c13.9,4.5,29.6,7.4,45.1,17.5C196,171.6,196.2,171.2,195.6,170.1z"/>
</svg>
